# xmcd
#
# Track frame offsets:
#	150
#	14353
#	26630
#	37677
#	60384
#	70464
#	83464
#	94398
#	106792
#	122561
#	139972
#	154473
#	170924
#	186161
#	201608
#
# Disc length: 2897 seconds
#
# Revision: 0
# Processed by: cddbd v1.4PL0 Copyright (c) Steve Scherf et al.
# Submitted via: audiograbber 1.81.03
#
DISCID=d00b4f0f
DTITLE=Kitchen Syncopators - Freight Train Blues
DYEAR=1900
DGENRE=Bluegrass
TTITLE0=Freight Train Blues
TTITLE1=France Blues
TTITLE2=Tear It Down
TTITLE3=James Alley Blues
TTITLE4=Johnson City
TTITLE5=Red Rockin' Chair
TTITLE6=I'm Not Jealous
TTITLE7=Tell It To Me
TTITLE8=Crooked World Blues
TTITLE9=Blues In The Bottle
TTITLE10=Wise County Jail
TTITLE11=Buck Dance Breakdown
TTITLE12=Georgia Bound Blues
TTITLE13=You May Leave
TTITLE14=Satisfied
EXTD=
EXTT0=
EXTT1=
EXTT2=
EXTT3=
EXTT4=
EXTT5=
EXTT6=
EXTT7=
EXTT8=
EXTT9=
EXTT10=
EXTT11=
EXTT12=
EXTT13=
EXTT14=
PLAYORDER=
